<?xml version="1.0" encoding="utf-8"?>
<!-- Generator: Adobe Illustrator 17.0.0, SVG Export Plug-In . SVG Version: 6.00 Build 0)  -->
<svg version="1.2" baseProfile="tiny" id="Ebene_1" xmlns="http://www.w3.org/2000/svg" xmlns:xlink="http://www.w3.org/1999/xlink"
	 x="0px" y="0px" width="188.996px" height="208.233px" viewBox="0 0 188.996 208.233" overflow="scroll" xml:space="preserve">
<g>
	
	<linearGradient id="SVGID_1_" gradientUnits="userSpaceOnUse" x1="81.1014" y1="29.7322" x2="110.426" y2="149.9619">
		<stop  offset="0" style="stop-color:#EEEBE9"/>
		<stop  offset="0.0471" style="stop-color:#E3E1DF"/>
		<stop  offset="0.1375" style="stop-color:#C7C5C4"/>
		<stop  offset="0.2609" style="stop-color:#969594"/>
		<stop  offset="0.3842" style="stop-color:#575756"/>
		<stop  offset="0.5603" style="stop-color:#4D4D4C"/>
		<stop  offset="0.8557" style="stop-color:#2D2D2C"/>
		<stop  offset="1" style="stop-color:#000000"/>
	</linearGradient>
	<path fill="url(#SVGID_1_)" d="M182.465,89.583c0,47.923-38.846,86.768-86.764,86.768c-47.923,0-86.767-38.845-86.767-86.768
		c0-47.92,38.845-86.767,86.767-86.767C143.619,2.815,182.465,41.663,182.465,89.583z"/>
	<linearGradient id="SVGID_2_" gradientUnits="userSpaceOnUse" x1="70.1879" y1="27.5905" x2="131.1492" y2="175.7263">
		<stop  offset="0" style="stop-color:#EEEBE9"/>
		<stop  offset="0" style="stop-color:#E5E3E2"/>
		<stop  offset="0" style="stop-color:#DADADA"/>
		<stop  offset="0.0615" style="stop-color:#EEEEEE"/>
		<stop  offset="0.1067" style="stop-color:#FFFFFF"/>
		<stop  offset="0.1275" style="stop-color:#F8F8F8"/>
		<stop  offset="0.1624" style="stop-color:#E5E5E5"/>
		<stop  offset="0.207" style="stop-color:#C5C5C5"/>
		<stop  offset="0.2472" style="stop-color:#A1A1A1"/>
		<stop  offset="0.2702" style="stop-color:#A3A3A3"/>
		<stop  offset="0.284" style="stop-color:#ABAAAA"/>
		<stop  offset="0.2954" style="stop-color:#B6B6B6"/>
		<stop  offset="0.3054" style="stop-color:#C6C6C6"/>
		<stop  offset="0.3146" style="stop-color:#DADADA"/>
		<stop  offset="0.356" style="stop-color:#D3D3D2"/>
		<stop  offset="0.4257" style="stop-color:#BEBEBE"/>
		<stop  offset="0.5152" style="stop-color:#9B9B9B"/>
		<stop  offset="0.62" style="stop-color:#666665"/>
		<stop  offset="0.6461" style="stop-color:#575756"/>
		<stop  offset="0.6734" style="stop-color:#616060"/>
		<stop  offset="0.7192" style="stop-color:#797979"/>
		<stop  offset="0.7416" style="stop-color:#878787"/>
		<stop  offset="0.7432" style="stop-color:#7F7F7F"/>
		<stop  offset="0.7503" style="stop-color:#605F5F"/>
		<stop  offset="0.7575" style="stop-color:#454544"/>
		<stop  offset="0.7649" style="stop-color:#2C2C2B"/>
		<stop  offset="0.7726" style="stop-color:#0F0E0E"/>
		<stop  offset="0.7809" style="stop-color:#000000"/>
		<stop  offset="0.7837" style="stop-color:#2D2C2C"/>
		<stop  offset="0.795" style="stop-color:#6A6A69"/>
		<stop  offset="0.8068" style="stop-color:#979696"/>
		<stop  offset="0.8186" style="stop-color:#B9B9B9"/>
		<stop  offset="0.8306" style="stop-color:#D3D3D3"/>
		<stop  offset="0.8427" style="stop-color:#E7E7E7"/>
		<stop  offset="0.8552" style="stop-color:#F4F4F4"/>
		<stop  offset="0.868" style="stop-color:#FDFCFC"/>
		<stop  offset="0.882" style="stop-color:#FFFFFF"/>
		<stop  offset="0.9036" style="stop-color:#E8E8E8"/>
		<stop  offset="0.9263" style="stop-color:#D4D4D4"/>
		<stop  offset="0.9496" style="stop-color:#C6C6C6"/>
		<stop  offset="0.9737" style="stop-color:#BDBDBD"/>
		<stop  offset="1" style="stop-color:#BBBABA"/>
	</linearGradient>
	<path fill="url(#SVGID_2_)" d="M180.639,89.583c0,46.915-38.029,84.938-84.938,84.938c-46.913,0-84.942-38.023-84.942-84.938
		c0-46.91,38.029-84.94,84.942-84.94C142.61,4.643,180.639,42.673,180.639,89.583z"/>
	<linearGradient id="SVGID_3_" gradientUnits="userSpaceOnUse" x1="109.8705" y1="136.346" x2="77.3004" y2="28.8647">
		<stop  offset="0.0246" style="stop-color:#FFFFFF"/>
		<stop  offset="0.2037" style="stop-color:#F8F8F8"/>
		<stop  offset="0.505" style="stop-color:#E5E5E5"/>
		<stop  offset="0.8896" style="stop-color:#C5C5C5"/>
		<stop  offset="1" style="stop-color:#BBBABA"/>
	</linearGradient>
	<circle fill="url(#SVGID_3_)" cx="95.7" cy="89.583" r="75.205"/>
	<radialGradient id="SVGID_4_" cx="97.5837" cy="94.3438" r="66.2831" gradientUnits="userSpaceOnUse">
		<stop  offset="0" style="stop-color:#BAB9B9"/>
		<stop  offset="0.102" style="stop-color:#A2A1A1"/>
		<stop  offset="0.229" style="stop-color:#888887"/>
		<stop  offset="0.3005" style="stop-color:#7D7D7D"/>
		<stop  offset="0.3609" style="stop-color:#747473"/>
		<stop  offset="0.6404" style="stop-color:#4A4A49"/>
		<stop  offset="0.9951" style="stop-color:#000000"/>
	</radialGradient>
	<path fill="url(#SVGID_4_)" d="M166.518,88.088c0,39.111-31.707,70.816-70.816,70.816c-39.113,0-70.82-31.706-70.82-70.816
		c0-39.115,31.707-70.82,70.82-70.82C134.81,17.268,166.518,48.973,166.518,88.088z"/>
	
	<linearGradient id="SVGID_5_" gradientUnits="userSpaceOnUse" x1="95.699" y1="34.0745" x2="95.699" y2="74.3801">
		<stop  offset="0" style="stop-color:#FFFFFF"/>
		<stop  offset="0.0457" style="stop-color:#FFFEFB"/>
		<stop  offset="0.48" style="stop-color:#FFF6D6"/>
		<stop  offset="0.8101" style="stop-color:#FFF0BD"/>
		<stop  offset="0.9951" style="stop-color:#FFEEB3"/>
	</linearGradient>
	<path fill="url(#SVGID_5_)" d="M141.721,67.033c0,19.039-20.603,34.475-46.02,34.475c-25.421,0-46.024-15.436-46.024-34.475
		s20.603-34.474,46.024-34.474C121.117,32.559,141.721,47.993,141.721,67.033z"/>
	<g>
		<radialGradient id="SVGID_6_" cx="140.3792" cy="124.4454" r="33.064" gradientUnits="userSpaceOnUse">
			<stop  offset="0" style="stop-color:#FEEFE1"/>
			<stop  offset="0.0978" style="stop-color:#FCD1A8"/>
			<stop  offset="0.2165" style="stop-color:#F7AD67"/>
			<stop  offset="0.3161" style="stop-color:#F39136"/>
			<stop  offset="0.3914" style="stop-color:#F08015"/>
			<stop  offset="0.4335" style="stop-color:#EF7A00"/>
		</radialGradient>
		<path fill="url(#SVGID_6_)" d="M118.876,131.547c0,0,4.206,5.731,13.051,4.728c0,0,9.385-4.413,17.349-14.746l-6.272-0.995
			C137.153,125.048,129.33,129.08,118.876,131.547z M145.6,118.376l5.243,1.026c4.341-6.256,8.003-14.408,9.079-24.741
			C159.922,94.66,158.027,107.386,145.6,118.376z"/>
	</g>
	<radialGradient id="SVGID_7_" cx="34.6225" cy="77.9892" r="60.0598" gradientUnits="userSpaceOnUse">
		<stop  offset="0" style="stop-color:#FEEFE1"/>
		<stop  offset="0.0978" style="stop-color:#FCD1A8"/>
		<stop  offset="0.2165" style="stop-color:#F7AD67"/>
		<stop  offset="0.3161" style="stop-color:#F39136"/>
		<stop  offset="0.3914" style="stop-color:#F08015"/>
		<stop  offset="0.4335" style="stop-color:#EF7A00"/>
	</radialGradient>
	<path fill="url(#SVGID_7_)" d="M51.376,44.525c0,0-18.337,13.843-19.833,41.907c0,0,2.246-5.989,7.859-5.616
		C39.401,80.816,34.162,65.851,51.376,44.525z"/>
</g>
<g>
	
		<linearGradient id="SVGID_8_" gradientUnits="userSpaceOnUse" x1="147.5016" y1="8.3773" x2="110.1381" y2="94.3489" gradientTransform="matrix(0.9892 -0.0815 0.0821 0.9966 -31.7197 56.5819)">
		<stop  offset="0.0246" style="stop-color:#FFFFFF"/>
		<stop  offset="0.2037" style="stop-color:#F8F8F8"/>
		<stop  offset="0.505" style="stop-color:#E5E5E5"/>
		<stop  offset="0.8896" style="stop-color:#C5C5C5"/>
		<stop  offset="1" style="stop-color:#BBBABA"/>
	</linearGradient>
	<path fill="none" stroke="url(#SVGID_8_)" stroke-width="6" stroke-miterlimit="10" d="M94.446,56.27
		c0.198,4.371-1.277,19.132-2.998,28.943s-6.856,27.309-9.056,31.313c-2.2,4.004-3.772,9.485-7.562,12.601
		c-3.791,3.116-6.127,3.524-8.333,2.98c-2.047-0.504-3.385-2.524-2.236-4.658c1.149-2.133,4.667-5.482,7.787-7.523
		s12.188-8.65,19.266-11.782s11.873-6.33,17.548-8.072s12.63-5.154,14.982-5.444c1.486-0.183,4.818,1.628,5.101,5.063
		c0.226,2.748-2.524,3.794-3.747,4.284c-2.598,1.04-5.708,0.173-6.793-0.103c-1.374-0.349-2.666-0.817-5.045-2.897
		s-7.108-8.03-10.26-12.51c-3.152-4.479-12.239-14.944-14.457-20.368s-3.385-10.377-3.676-13.914s1.724-5.269,2.489-5.89
		c0.536-0.435,2.861-0.926,3.708-0.306c0.629,0.461,1.807,1.057,2.387,2.858C93.969,52.149,94.446,56.27,94.446,56.27z"/>
	
		<linearGradient id="SVGID_9_" gradientUnits="userSpaceOnUse" x1="136.9267" y1="10.173" x2="146.5579" y2="94.5728" gradientTransform="matrix(1.0267 -0.0846 0.0847 1.0277 -57.4544 46.2685)">
		<stop  offset="0" style="stop-color:#EEEBE9"/>
		<stop  offset="0.0471" style="stop-color:#E3E1DF"/>
		<stop  offset="0.1375" style="stop-color:#C7C5C4"/>
		<stop  offset="0.2609" style="stop-color:#969594"/>
		<stop  offset="0.3842" style="stop-color:#575756"/>
		<stop  offset="0.5603" style="stop-color:#4D4D4C"/>
		<stop  offset="0.8557" style="stop-color:#2D2D2C"/>
		<stop  offset="1" style="stop-color:#000000"/>
	</linearGradient>
	<path fill="none" stroke="url(#SVGID_9_)" stroke-width="6" stroke-miterlimit="10" d="M96.009,55.788
		c0.203,4.507-1.336,19.73-3.128,29.849s-7.131,28.165-9.416,32.296s-3.92,9.784-7.856,12.999c-3.936,3.215-6.362,3.637-8.65,3.078
		c-2.124-0.519-3.511-2.601-2.318-4.802c1.193-2.201,4.847-5.655,8.086-7.762s12.654-8.927,20.002-12.16s12.327-6.535,18.217-8.334
		c5.89-1.799,13.112-5.322,15.552-5.622c1.543-0.19,4.999,1.676,5.291,5.218c0.234,2.834-2.621,3.914-3.891,4.42
		c-2.697,1.074-5.925,0.182-7.051-0.102c-1.425-0.359-2.766-0.841-5.234-2.985c-2.468-2.143-7.373-8.277-10.642-12.895
		c-3.269-4.617-12.695-15.404-14.993-20.996c-2.299-5.592-3.507-10.699-3.808-14.346c-0.301-3.647,1.793-5.434,2.586-6.075
		c0.557-0.449,2.97-0.957,3.849-0.317c0.652,0.475,1.875,1.089,2.476,2.946C95.517,51.539,96.009,55.788,96.009,55.788z"/>
	
		<linearGradient id="SVGID_10_" gradientUnits="userSpaceOnUse" x1="111.3455" y1="2.8383" x2="132.0167" y2="78.8679" gradientTransform="matrix(0.9966 -0.0821 0.0821 0.9966 -37.1243 57.0273)">
		<stop  offset="0" style="stop-color:#EEEBE9"/>
		<stop  offset="0" style="stop-color:#E5E3E2"/>
		<stop  offset="0" style="stop-color:#DADADA"/>
		<stop  offset="0.0615" style="stop-color:#EEEEEE"/>
		<stop  offset="0.1067" style="stop-color:#FFFFFF"/>
		<stop  offset="0.1275" style="stop-color:#F8F8F8"/>
		<stop  offset="0.1624" style="stop-color:#E5E5E5"/>
		<stop  offset="0.207" style="stop-color:#C5C5C5"/>
		<stop  offset="0.2472" style="stop-color:#A1A1A1"/>
		<stop  offset="0.2702" style="stop-color:#A3A3A3"/>
		<stop  offset="0.284" style="stop-color:#ABAAAA"/>
		<stop  offset="0.2954" style="stop-color:#B6B6B6"/>
		<stop  offset="0.3054" style="stop-color:#C6C6C6"/>
		<stop  offset="0.3146" style="stop-color:#DADADA"/>
		<stop  offset="0.356" style="stop-color:#D3D3D2"/>
		<stop  offset="0.4257" style="stop-color:#BEBEBE"/>
		<stop  offset="0.5152" style="stop-color:#9B9B9B"/>
		<stop  offset="0.62" style="stop-color:#666665"/>
		<stop  offset="0.6461" style="stop-color:#575756"/>
		<stop  offset="0.6734" style="stop-color:#616060"/>
		<stop  offset="0.7192" style="stop-color:#797979"/>
		<stop  offset="0.7416" style="stop-color:#878787"/>
		<stop  offset="0.7432" style="stop-color:#7F7F7F"/>
		<stop  offset="0.7503" style="stop-color:#605F5F"/>
		<stop  offset="0.7575" style="stop-color:#454544"/>
		<stop  offset="0.7649" style="stop-color:#2C2C2B"/>
		<stop  offset="0.7726" style="stop-color:#0F0E0E"/>
		<stop  offset="0.7809" style="stop-color:#000000"/>
		<stop  offset="0.7837" style="stop-color:#2D2C2C"/>
		<stop  offset="0.795" style="stop-color:#6A6A69"/>
		<stop  offset="0.8068" style="stop-color:#979696"/>
		<stop  offset="0.8186" style="stop-color:#B9B9B9"/>
		<stop  offset="0.8306" style="stop-color:#D3D3D3"/>
		<stop  offset="0.8427" style="stop-color:#E7E7E7"/>
		<stop  offset="0.8552" style="stop-color:#F4F4F4"/>
		<stop  offset="0.868" style="stop-color:#FDFCFC"/>
		<stop  offset="0.882" style="stop-color:#FFFFFF"/>
		<stop  offset="0.9036" style="stop-color:#E8E8E8"/>
		<stop  offset="0.9263" style="stop-color:#D4D4D4"/>
		<stop  offset="0.9496" style="stop-color:#C6C6C6"/>
		<stop  offset="0.9737" style="stop-color:#BDBDBD"/>
		<stop  offset="1" style="stop-color:#BBBABA"/>
	</linearGradient>
	<path fill="none" stroke="url(#SVGID_10_)" stroke-width="6" stroke-miterlimit="10" d="M95.393,56.77
		c0.197,4.371-1.298,19.134-3.038,28.947c-1.74,9.813-6.924,27.315-9.142,31.32c-2.218,4.006-3.805,9.488-7.626,12.606
		c-3.821,3.118-6.175,3.528-8.397,2.986c-2.062-0.503-3.408-2.522-2.25-4.657c1.158-2.134,4.705-5.485,7.85-7.528
		c3.145-2.043,12.284-8.658,19.416-11.794c7.132-3.136,11.965-6.338,17.683-8.083c5.718-1.745,12.727-5.162,15.096-5.453
		c1.497-0.184,4.853,1.625,5.136,5.06c0.226,2.748-2.545,3.796-3.778,4.287c-2.618,1.042-5.751,0.177-6.844-0.098
		c-1.384-0.348-2.685-0.816-5.081-2.894c-2.396-2.079-7.156-8.026-10.328-12.504c-3.172-4.478-12.321-14.937-14.552-20.36
		s-3.404-10.375-3.695-13.912c-0.291-3.537,1.74-5.27,2.511-5.891c0.54-0.435,2.883-0.928,3.736-0.308
		c0.633,0.46,1.819,1.056,2.403,2.857C94.916,52.65,95.393,56.77,95.393,56.77z"/>
</g>
</svg>
