<?xml version="1.0"?><svg width="435" height="245" xmlns="http://www.w3.org/2000/svg">
 <title>Blue Kangaroo</title>
 <g>
  <title>Layer 1</title>
  <path d="m399.710999,59.600998c-3.049011,-9.698997 -1.562988,-20.504997 -5.231995,-29.645996c-4.942993,-12.316002 -10.464996,-0.095001 -10.464996,7.848c-3.429016,-4.791 -10.614014,-7.387001 -14.824005,-10.463005c-5.006012,-3.657997 -6.209991,-3.957993 -6.104004,2.616005c0.101013,6.272995 4.362,12.320999 6.97699,18.310997c1.990021,4.560005 2.479004,4.497002 5.232025,6.975998c2.25,2.025002 4.312988,1.860001 5.230988,5.232002c-10.041992,-0.882996 -20.424011,7.215004 -27.904999,13.079002c-1.85199,-5.967003 -8.959015,-10.788002 -14.824005,-12.208c-3.488983,-0.845001 -5.237,0.607002 -8.36499,-1.583c-3.515015,-2.459999 -6.917999,-4.896004 -10.234009,-7.609001c-10.388,-8.498001 -8.631989,-7.239998 -37.06601,-20.377998c-28.43399,-13.138 -57.179993,1.247002 -85.766983,17.581001c-24.992004,14.279999 -52.246002,27.277 -81.278,30.042c-32.089005,3.056 -59.412003,-8.695 -83.795006,-29.014c-5.479,-4.564003 -11.603371,-14.542969 -13.42767,-19.192665c-1.824299,-4.649704 -2.456001,-7.824341 -2.778,-9.882034c-0.321991,-2.057701 -1.96133,-23.785343 -2.68833,-26.666344c-7.26,5.543011 -1.251671,41.646034 2.040339,47.818031c8.013,15.022003 18.603661,25.678001 32.869652,36.151009c14.265991,10.473 53.025986,27.548576 87.812355,21.38398c34.786346,-6.164597 29.164658,-6.483978 43.093658,-9.876984c4.140991,-1.007996 19.448318,-7.320648 21.108002,5.025665c1.659683,12.346313 4.765671,12.034988 7.667999,14.285324c2.902328,2.250336 11.595673,3.001678 14.388992,3.795013c2.79332,0.793335 19.781006,10.899002 29.472015,10.899002c9.02298,0 7.588989,37.024002 7.588989,44.251999c0,9.481995 -3.312988,14.542007 -6.104004,22.888c-4.045013,12.097 7.739014,13.328995 16.132996,16.130997c5.472992,1.827011 14.248016,9.886993 18.313019,13.950989c6.85199,6.851013 14.070984,12.299011 20.491974,19.620026c2.89502,3.300995 6.626007,6.877991 11.335999,6.974976c1.567017,0.032013 3.556,-2.694 4.361023,-2.615997c1.328979,0.128021 3.186981,1.856018 4.359985,1.744019c2.248993,-0.214996 2.604004,2.625 4.796021,0.436005c1.062988,-1.061005 0.821991,-5.782013 1.30899,-7.410004c3.98999,2.036987 4.492981,0.117004 7.847992,0c5.057007,-0.177002 5.071014,2.897003 6.104004,-3.489014c0.713013,-4.406006 -3.783997,-14.247986 -6.540009,-17.001984c-12.020996,-12.007004 -30.651978,-12.006012 -44.910004,-20.491013c-30.529999,-18.169998 3.488007,-47.431992 3.488007,-71.5c0,0.296997 8.423004,-1.526993 9.593018,-0.871994c3.050995,1.709 4.263,9.884995 3.052002,13.516998c-1.256012,3.768997 -10.521027,10.755005 -13.517029,11.770004c5.610016,6.396988 14.965027,2.570999 21.364014,0.436996c11.522003,-3.844009 13.790009,-8.714996 16.134003,-19.619003c2.128998,-9.906998 11.695984,-13.108002 20.846985,-17.029007c9.972015,-4.272995 17.495026,-14.389999 21.883026,-23.951996c6.154999,6.699997 16.765991,6.080002 24.416992,8.720001c8.692993,3 14.723999,5.330002 21.363983,-1.307999c6.876007,-6.871994 -1.480988,-10.723999 -6.539978,-18.310997c-2.744019,-4.115005 -4.226013,-9.113007 -7.848999,-12.644005c-3.574005,-3.486 -8.546021,-3.769997 -10.463013,-8.722" id="path3" stroke-miterlimit="10" stroke-linecap="square" stroke-width="1.7506" stroke="#000000" fill="#F7EDCC" clip-rule="evenodd" fill-rule="evenodd"/>
  <path d="m380.524994,60.973c-10.041992,-0.883003 -20.424011,7.215004 -27.904999,13.079002c3.774994,0.035011 23.035004,5.759995 16.569,-5.232002c5.40799,0.719002 7.682007,-5.692001 11.335999,-7.847" id="path5" fill="#0000ff" clip-rule="evenodd" fill-rule="evenodd"/>
  <path d="m333.437012,240.095001c-1.729004,5.790009 -0.016998,10.019012 -6.97699,6.539001c-4.164001,-2.082001 -5.815002,1.28299 -10.465027,0.436005c-4.879974,-0.890015 -9.856995,-6.158997 -12.208984,-10.463989c3.074005,2.005981 16.752991,9.322998 17.44101,2.615967c4.52298,6.868011 10.676971,-8.529968 12.209991,0.873016" id="path7" fill="#000000" clip-rule="evenodd" fill-rule="evenodd"/>
  <path d="m198.270996,48.765999c-24.024994,13.728004 -49.185989,25.864998 -76.738998,30.517998c-24.826996,4.192001 -57.624001,-0.487 -76.738998,-18.310997c5.772003,10.122002 22.609001,15.473999 33.036003,18.681999c13.600998,4.184998 26.380997,5.839996 40.525002,4.89801c13.151001,-0.876007 25.94899,-7.035011 38.735992,-9.77401c13.106003,-2.807999 28.596008,-11.634003 42.053009,-10.318001c-9.506012,-0.933998 -7.865005,-12.205002 -0.872009,-15.695" id="path9" fill="#ff7f00" clip-rule="evenodd" fill-rule="evenodd"/>
  <path d="m340.411987,124.125c16.141998,-6.078003 31.009003,-16.221008 38.369995,-32.261993" id="path11" stroke-miterlimit="10" stroke-linecap="square" stroke-width="0.7506" stroke="#000000" fill="none"/>
  <path d="m318.609985,152.899002c7.450012,-2.486008 13.873016,-5.031998 16.569,-13.078995c1.765991,-5.270996 -0.541992,-12.404999 5.231995,-15.695007c-2.40799,-0.337997 -8.660004,-0.673004 -10.463989,0c-3.632996,1.356003 -1.871002,-1.132004 -3.488007,2.61499c-0.824005,1.910004 0.759003,5.77301 0.872009,7.848999c0.278992,5.113007 -0.14801,8.09201 -2.617004,12.207016c-1.673981,2.792999 -6.086975,5.700989 -6.104004,6.102997" id="path13" stroke-miterlimit="10" stroke-linecap="square" stroke-width="0.7506" stroke="#000000" fill="#000000" clip-rule="evenodd" fill-rule="evenodd"/>
  <path d="m341.283997,240.095001c10.446014,6.053009 4.485016,-9.945007 2.615997,-13.951996c-2.328003,-4.992004 -4.709991,-9.765015 -10.463989,-12.644012c-14.996002,-7.500992 -53.179016,-10.201996 -50.488007,-34.385986c1.582001,-14.225006 8.886993,-27.854004 13.410004,-41.425003c1.977997,-5.932007 5.540009,-9.328003 -0.420013,-10.948013c-7.113983,-1.93399 -7.770996,3.818008 -8.582977,9.511017c-1.796997,12.571991 -4.821014,28.584 -9.729004,40.189987c-1.869995,4.423004 -4.114014,5.251999 -2.615997,10.464005c1.690979,5.884995 7.994995,10.934006 12.208984,14.822998c10.692017,9.867996 23.436005,13.878021 35.317017,21.798981c6.25,4.167023 10.131989,21.926025 18.747986,16.568024" id="path15" stroke-miterlimit="10" stroke-linecap="square" stroke-width="0.7506" stroke="#000000" fill="#0000ff" clip-rule="evenodd" fill-rule="evenodd"/>
  <path d="m326.459991,227.015015c-7.364014,-8.472015 -18.613007,-9.791016 -27.468994,-15.695007c-8.925018,-5.950012 -18.662018,-13.770004 -23.545013,-23.541c-1.93399,-3.868011 -0.90799,-5.792007 0.436005,-9.59201c2.019012,-5.707993 3.817017,-11.151001 5.231995,-17.438995c2.282013,-10.143005 4.005005,-24.874008 8.720001,-34.007004c-3.441986,10.886993 -6.059998,22.263 -10.056,32.917007c-1.475983,3.93399 -1.806,11.205994 -4.768982,14.168991c-2.906006,2.906006 -5.803009,9.059006 -4.797028,13.07901c2.157013,8.625 15.525024,13.884995 22.460022,18.350998c11.263,7.251999 22.524994,14.50499 33.787994,21.758011" id="path17" stroke-miterlimit="10" stroke-linecap="square" stroke-width="0.7506" stroke="#000000" fill="#ff7f00" clip-rule="evenodd" fill-rule="evenodd"/>
  <path d="m333.437012,240.095001c1.519989,0.531006 8.145996,0.298004 8.28299,0.436005c3.920013,3.919983 5.292023,-1.59201 5.669006,-3.924988c1.067017,-6.598999 -4.354004,-10.577026 -6.104004,-15.694031c-1.783997,6.027008 4.768005,10.480011 0.872009,18.311035c-0.287018,-6.02002 -13.486023,-8.562012 -8.720001,0.871979" id="path19" fill="#190000" clip-rule="evenodd" fill-rule="evenodd"/>
  <path d="m276.01001,121.625c-0.085022,5.705002 9.600983,8.498001 11.335999,13.950989c4.675995,-17.413986 5.457977,-32.934998 4.360992,-50.572998c-0.623993,-10.041992 -3.442993,-21.187992 -12.209015,-27.030991c-3.821991,-2.547001 -6.663971,-5.230999 -11.336975,-5.230999c-2.950012,0 -4.125,0.99099 -6.97699,-0.436001c-5.835999,-2.92001 -5.954041,-5.524002 -12.821014,-4.149002c-10.647003,2.130001 -20.323013,5.288002 -29.649002,10.883003c-11.518997,6.910011 3.296997,13.183998 1.485001,20.733002c-1.369003,5.705994 -8.559006,3.300995 -13.081009,5.231995c-1.580994,-3.704994 -1.362,-8.572998 1.74501,-11.335999c-12.937012,2.549004 -5.670013,18.018997 -3.908005,25.544998c1.761993,7.526001 4.291,4.035995 8.024002,6.582993c4.145996,2.828003 6.894989,4.768013 10.464996,5.994019c1.473999,0.505981 1.225006,1.353989 2.423004,1.550995c1.197998,0.197006 7.401001,3.921997 11.384995,5.248993c4.317001,1.438004 11.024002,3.304001 13.219009,2.785004c2.195007,-0.518997 4.359985,-0.438004 4.609985,1.557999c0.25,1.996002 2.432007,2.96199 2.871002,4.789993c1.970001,8.189011 2.360992,15.919006 2.360992,24.809006c0,8.947998 0.205994,17.766006 -0.872986,26.641998c-0.914001,7.518997 0.04599,10.307999 7.850006,11.335999c-1.042999,-14.274002 -15.618988,-67.459007 8.720001,-68.884995" id="path21" fill="#0000ff" clip-rule="evenodd" fill-rule="evenodd"/>
  <path d="m263.429016,133.20401c0,18.855988 2.992004,37.066986 4.360992,55.804993c-8.289001,-1.093002 -8.842987,-4.393997 -7.713013,-12.289001c1.43399,-10.022995 0.735992,-20.397003 0.735992,-30.518005c0,-7.196991 -6.974976,-16.669998 -5.231995,-23.462006c3.007019,-11.722992 7.056,7.681 7.848022,10.46402" id="path23" fill="#000000" clip-rule="evenodd" fill-rule="evenodd" transform="rotate(1.08185 261.546 154.009)"/>
  <path d="m280.242004,61.345001c-3.076996,-2.507988 -6.252991,-4.195999 -9.593018,-6.104004c0.208008,8.219002 6.621002,10.36599 10.465027,16.131004c5.550995,8.328995 10.196991,19.789009 9.592987,30.082008c0,-10.526001 0.02301,-20.001007 -3.940002,-29.905006c-1.721008,-4.298004 -6.415009,-13.877991 2.195007,-14.564003c-3.585999,-0.134003 -7.503998,0.715996 -8.720001,4.360001" id="path25" fill="#F7EDCC" clip-rule="evenodd" fill-rule="evenodd"/>
  <path d="m222.431,112.404999c-4.600006,-5.972 -14.009003,-0.111 -18.731003,-9.558998c-2.108002,-4.217003 -1.792999,-8.640999 -3.940002,-12.239998c-2.146988,-3.598999 0.074005,-4.766006 -2.615997,-6.976006c13.042007,2.156006 15.042007,22.402 25.287003,28.775002" id="path27" fill="#E8CCA6" clip-rule="evenodd" fill-rule="evenodd"/>
  <path d="m384.337524,37.802002c2.624084,4.234001 3.739227,8.220985 5.431122,13.514999c2.10672,6.598 2.237,14.875 6.265564,18.747002c3.996948,3.841995 6.74649,4.490997 9.607178,10.462997c2.928741,6.109993 9.758575,5.652992 14.620636,9.592003c-3.730621,2.667007 -2.048279,14.628998 -10.861267,10.026993c-2.831024,-1.479004 -6.278046,-3.761993 -9.189514,-4.79599c-4.028534,-1.431 -9.781555,-0.352005 -13.367493,-2.615997c-5.489532,-3.46701 -2.506226,-3.837006 -2.506226,-9.156006c0,-3.528999 -0.712769,-9.527 -4.177032,-11.335007c-7.5867,-3.959984 1.515625,-8.047997 0,-13.514999c-0.867004,-3.125984 -3.313873,-1.750984 -5.011505,-3.487984c-2.312714,-2.364014 -2.894226,-4.298012 -4.594727,-7.848015c-1.680389,-3.507011 -3.338776,-6.965996 -5.012451,-10.462997c-1.040436,-2.175003 -1.767242,-5.684998 -1.670837,-7.412003c0.096405,-1.726997 0.833496,-4.355995 1.670837,-5.230995c1.345062,-1.406006 3.394318,2.135994 4.594727,3.051994c4.031403,3.077003 10.915863,5.674004 14.200989,10.464005" id="path29" fill="#ff7f00" clip-rule="evenodd" fill-rule="evenodd"/>
  <path d="m421.761993,90.119003c-6.134003,-4.759995 -12.368988,-3.815994 -16.132996,-11.335007c-1.286987,-2.570999 -2.389008,-5.217995 -4.79599,-6.975998c-2.949005,-2.153 -6.455017,-0.532997 -7.412018,-4.360001c-2.164978,-8.655998 -3.373993,-16.947998 -6.540985,-25.285995c-1.53302,-4.038002 -5.391998,-7.297005 1.378998,-15.573006c6.770996,-8.275997 8.973999,20.631004 10.829987,26.908005c1.855988,6.277 8.46701,9.649002 13.951996,17.875c4.817017,7.223999 9.394012,14.366997 14.825012,20.491005c-1.123993,-0.01001 -1.369995,0.005997 -2.615997,0c-0.515015,-2.556 -0.89801,-1.649017 -2.617004,-3.488007c0.179016,1.128998 -0.320007,0.994003 -0.871002,1.744003" id="path31" fill="#0000ff" clip-rule="evenodd" fill-rule="evenodd"/>
  <path d="m391.862,59.600998c-0.097992,-7.610985 -4.036011,-15.905998 -7.848999,-21.797997" id="path35" stroke-miterlimit="10" stroke-linecap="square" stroke-width="0.7506" stroke="#000000" fill="none"/>
  <path d="m373.549011,72.68c4.92099,7.847 5.721008,24.472008 -5.230988,27.903008c4.677979,-4.774017 4.939972,-16.741005 -1.744019,-20.055008c4.187988,-0.232002 6.516998,-3.889999 6.975006,-7.848" id="path37" fill="#000000" clip-rule="evenodd" fill-rule="evenodd"/>
  <path d="m326.459991,124.125c19.638,0.541 29.082001,-8.403992 38.368988,-25.286011c-5.721985,5.719009 -10.502991,7.430008 -17.440002,10.89801c-4.702972,2.35199 -2.955994,0.237 -7.847992,-1.307007c-3.878998,-1.224991 -8.23999,-2.274994 -12.208984,-2.615997c-9.719025,-0.834991 -14.124023,7.660004 -22.673004,2.615997c1.769989,10.171997 7.848999,20.171997 7.848999,30.518005c0,3.944 -11.080017,12.104996 -13.953003,13.078003c5.936005,6.768997 18.806,3.001999 23.980988,-2.179001c7.777008,-7.783997 2.850006,-16.160004 3.924011,-25.722" id="path39" fill="#0000ff" clip-rule="evenodd" fill-rule="evenodd"/>
  <path d="m351.748993,97.095001c-3.451996,3.285004 -12.524994,0.548004 -17.44101,1.743988c4.075012,-2.728989 5.110992,-8.875 3.488007,-13.079987c-2.221008,5.783997 -17.886993,10.688995 -11.335999,15.695007c6.552002,5.006989 19.468018,0.155991 25.289001,-4.359009" id="path41" fill="#000000" clip-rule="evenodd" fill-rule="evenodd"/>
  <path d="m334.308014,103.197998c-1.424011,-0.298996 -9.998016,-1.306 -10.463989,-2.615997c-1.423004,-4.006012 8.747986,-9.444 11.335999,-10.462997c-6.527008,0.926987 -12.188019,4.561996 -16.569,9.590988c4.528992,3.749008 10.132965,3.488007 15.696991,3.488007" id="path43" fill="#ff7f00" clip-rule="evenodd" fill-rule="evenodd"/>
  <path d="m328.203003,59.600998c-20.10199,-13.915001 -38.395996,-24.708 -63.076996,-27.449997c-22.847015,-2.538002 -45.515015,7.456001 -65.983002,16.114998c6.263,3.269005 17.011002,5.448997 23.544998,2.18c4.556992,-2.278999 5.974991,-7.981003 11.335999,-10.027c-0.290009,0.582001 -0.581009,1.163002 -0.871002,1.744003c3.669998,4.977997 10.386978,-2.377998 16.568008,-3.924004c7.682007,-1.919998 15.321991,-1.381996 23.125977,0.178001c19.662018,3.93 37.731018,11.853989 55.356018,21.183998" id="path45" fill="#F7EDCC" clip-rule="evenodd" fill-rule="evenodd"/>
  <path d="m292.450012,72.68c4.178986,5.141998 4.10199,13.973 2.615997,20.055c-0.618988,2.531998 -3.130005,6.205002 -1.744995,8.283997c1.462006,2.193008 0.872009,5.242004 0.872009,7.848007c0,12.371002 2.319977,12.643005 13.953979,12.643005c-1.869995,-5.600006 -2.992981,-11.587006 -4.796997,-17.002014c-2.067993,-6.212006 7.286011,-10.274994 13.080994,-12.207993c2.666016,-0.888992 11.770996,-0.849014 11.770996,-4.796005c0,-3.769997 3.132019,-7.681 6.104004,-9.590996c-4.630981,0.861 -8.265991,-1.249001 -10.463989,-5.232002c-0.747986,0.791 -0.421997,0.921013 -0.872009,1.744003c-8.449982,-3.244003 -25.96698,9.509995 -26.16098,-7.848c-0.673035,2.351997 -1.718018,5.310997 -4.359009,6.102997" id="path47" fill="#0000ff" clip-rule="evenodd" fill-rule="evenodd" stroke="#000000"/>
  <path d="m305.531006,77.040001c5.19101,-2.218002 11.916992,-4.736 17.440002,-2.615997c0.269012,-1.086006 0.091003,-0.919006 0.872009,-1.744003c-5.140015,0.064987 -19.346008,-1.355003 -18.312012,4.360001" id="path49" fill="#E8CCA6" clip-rule="evenodd" fill-rule="evenodd"/>
  <path d="m327.332001,117.149002c1.471985,3.113998 0,15.182999 0,20.055008c0,7.472992 -2.911011,12.296997 -9.592987,15.694992" id="path51" stroke-miterlimit="10" stroke-linecap="square" stroke-width="0.7506" stroke="#000000" fill="none"/>
  <path d="m385.757996,57.856987c-3.243988,-10.46199 -5.148987,-20.415985 -17.440002,-23.542984c2.377014,4.217995 1.764008,12.226997 5.231995,15.695984c2.995026,2.99501 7.487,4.416 9.59201,8.719009c0.358002,-1.856995 1.187012,-0.237 2.615997,-0.872009" id="path53" fill="#73332B" clip-rule="evenodd" fill-rule="evenodd"/>
  <path d="m385.757996,57.856987c-3.243988,-10.46199 -5.148987,-20.415985 -17.440002,-23.542984c0.265015,0.946999 1.184021,2.753998 1.744019,3.487999c6.423981,-2.881004 14.703979,14.571999 15.695984,20.055" id="path55" fill="#4C0D05" clip-rule="evenodd" fill-rule="evenodd"/>
  <path d="m391.862,70.936996c1.242004,0.884003 10.381012,4.029007 7.848999,6.975006c-3.743988,4.354996 -7.365997,-5.620003 -7.848999,-6.975006" id="path57" clip-rule="evenodd" fill-rule="evenodd"/>
  <path d="m396.222992,72.68c2.235992,1.116013 3.428986,2.811996 3.488007,5.232002c2.204987,-2.205002 2.255981,-5.425003 0,-7.847c-0.557007,2.935997 -1.80899,1.454994 -3.488007,2.614998" id="path59" fill="#000000" clip-rule="evenodd" fill-rule="evenodd"/>
  <path d="m425.871002,97.095001c-1.217987,0.516998 -1.826996,1.274994 -3.488007,0.872009c0.57901,-0.49501 1.097992,-1.860016 1.744995,-2.616013c-7.212006,4.776993 -3.981995,-10.806992 0,-3.487991c-0.424988,0.341003 -1.944,1.330994 -2.615997,1.743988c0.290009,0.291016 0.580994,0.581009 0.871002,0.872009c1.82901,-5.210999 7.570007,-2.567001 3.488007,0.871994c0.789001,-0.465988 1.018005,-0.016998 1.744995,-0.871994c-0.873993,0.778992 -1.134003,1.647995 -1.744995,2.615997" id="path61" fill="#190000" clip-rule="evenodd" fill-rule="evenodd"/>
  <path d="m397.095001,76.167c-0.009003,-0.040001 1.286987,-0.477997 -0.872009,-0.872002c-0.289978,0.872002 0,1.163002 0.872009,0.872002" id="path63" fill="#E8CC75" clip-rule="evenodd" fill-rule="evenodd"/>
  <path d="m224.431,70.064003c6.960007,7.708 17.466003,12.403 27.033997,15.693993c-13.274994,0.001007 -22.241989,-2.415993 -27.033997,-15.693993" id="path65" fill="#000000" clip-rule="evenodd" fill-rule="evenodd"/>
  <path d="m220.944,90.990997c2.222,3.71701 10.606003,6.104004 14.822998,6.104004c0.966003,0 3.037003,4.916992 4.360016,6.104004c1.98999,1.783997 6.227966,2.553986 8.719971,3.487991c-10.497986,0.518997 -26.780991,-3.386002 -27.902985,-15.695999" id="path67" fill="#000000" clip-rule="evenodd" fill-rule="evenodd"/>
  <path d="m403.199005,100.583008c-7.662994,-2.77301 -18.208008,-1.960999 -24.416992,-8.720001c-11.040009,19.316986 -28.613007,32.261993 -51.450012,32.261993c18.109009,-2.582001 35.761017,-14.309998 46.427002,-29.242004c2.225983,-3.115997 1.705994,-7.516998 5.894989,-7.380005c2.093994,0.069 4.414001,4.059006 6.104004,5.231018c5.194,3.60498 14.039001,2.598999 17.44101,7.848999" id="path69" fill="#0000ff" clip-rule="evenodd" fill-rule="evenodd"/>
  <path d="m309.019989,145.052994c-5.014008,1.401001 -7.450989,6.830002 -10.464996,6.973999c3.373993,-3.722 -5.074005,-8.556 2.615997,-13.078003c0.019012,4.108994 2.47699,2.513 4.359985,0c0.147003,1.391006 0.830017,1.904999 0.871002,3.488007c0.819,-0.80101 2.56601,-1.305008 3.488007,-2.616013c1.328003,1.984009 0.628021,3.486023 -0.869995,5.23201" id="path71" fill="#190000" clip-rule="evenodd" fill-rule="evenodd"/>
  <path d="m298.554993,152.026001c2.019012,-2.227005 -1.580994,-6.136002 -1.743988,-9.589996c-2.143005,4.35199 -0.089996,7.399994 1.743988,9.589996" id="path73" fill="#000000" clip-rule="evenodd" fill-rule="evenodd"/>
  <path d="m258.067993,177.807999c-1.140015,6.729004 -13.947998,26.026001 2.617004,25.285995c3.375,-9.619995 -7.125977,-16.412994 -2.617004,-25.285995" id="path75" fill="#000000" clip-rule="evenodd" fill-rule="evenodd"/>
  <path d="m318.609985,236.60498c-1.85498,-5.325989 -8.52002,-2.925964 -12.208008,-4.358978c-3.641998,-1.415009 -13.720001,-8.019989 -15.26001,-12.643005c-1.352997,-4.063019 -5.615997,-10.849991 -8.721985,-13.951004c-5.199005,-5.192993 -12.843994,-5.23999 -17.875977,-10.028c-2.653015,2.850006 -11.059021,-0.972992 -9.593018,-4.358994c-5.028015,4.076004 -0.801025,8.166 3.487976,10.464005c5.108032,2.737 13.788025,-0.167007 17.44101,3.487c3.074005,3.076004 4.445007,7.458008 6.976013,10.463989c3.744995,4.447998 8.962006,8.088013 13.113007,12.239014c3.431976,3.432007 6.484985,7.815002 11.303986,7.815002c3.725006,0 7.943024,-0.671021 11.337006,0.870972" id="path77" fill="#ff7f00" clip-rule="evenodd" fill-rule="evenodd"/>
  <path d="m289.834015,60.473c2.102997,2.521004 3.610016,5.763 6.97702,6.102997c-1.41803,8.573006 -8.576019,4.423004 -5.232025,0c-2.886017,-1.165009 -3.513,-3.674995 -1.744995,-6.102997" id="path79" fill="#E8CCA6" clip-rule="evenodd" fill-rule="evenodd"/>
  <path d="m328.203003,59.100998c4.259003,5.303001 10.988007,5.001999 15.696991,8.720001c2.041992,1.612999 3.014008,4.419014 5.231018,6.104004c3.891998,2.954994 5.156982,0.502998 8.721985,1.743996c20.112,7.000999 4.088013,35.523994 -13.080994,33.13401c4.326996,-3.864014 7.790009,-8.039001 7.847992,-13.951019c-4.342987,3.376007 -10.294006,0.387009 -14.824005,2.616013c0.994995,-4.074005 1.882996,-7.916 0.872009,-12.207993c-0.391998,-1.66201 -3.20401,-9.872009 -6.540009,-6.539009c-1.893005,1.890999 -5.127991,8.974998 -6.97699,9.592003c-7.433014,2.478989 -15.763,2.184998 -21.36499,8.283005c0.220978,-4.575012 -6.219025,-10.322006 -9.593018,-7.847015c-2.764984,-1.560989 -5.338989,-16.917992 -6.975006,-21.798996c-1.652985,-4.933998 -2.302979,-1.768997 -0.872986,-6.103996c0.527985,-1.600998 4.235992,-2.400002 4.360992,-3.487999c0.881012,-7.674004 -7.970001,0.823997 -8.721985,0.872009c-3.748016,0.241989 -8.449005,-6.911011 -14.824005,-3.487999c3.313995,1.978989 2.898987,7.541 4.796997,11.334999c0.355011,0.71299 2.377991,7.125 2.179993,7.847c-1.230988,4.491989 -3.199005,2.51899 -7.411987,3.923988c-6.053986,2.017998 -27.64801,-1.612 -27.469025,-8.282997c-5.863983,-2.400002 -9.052979,-8.452003 -13.952988,-10.899002c-5.042999,-2.51899 -9.076996,2.355011 -13.080994,4.359001c-4.737,2.37101 -6.451996,7.630997 -10.464005,10.028c-6.563995,3.921997 -20.524002,3.817009 -27.904999,3.487999c5.979004,-4.013 10.917007,-9.734001 14.824005,-15.695c2.171997,-3.312981 3.727005,-7.215004 6.541,-10.027c3.835999,-3.834 5.037994,-2.11998 10.028,-0.872002c5.082993,1.272003 14.468002,3.411003 18.748993,-0.872002c3.229004,-3.229996 5.275009,-7.340996 10.028,-9.154999c-0.289993,0.582001 -0.580994,1.163002 -0.871002,1.744003c3.670013,4.977997 10.387009,-2.377991 16.568008,-3.924004c7.681976,-1.919998 15.321991,-1.381996 23.126007,0.178001c19.662994,3.929001 37.731995,11.853004 55.356995,21.182999" id="path81" fill="#ff7f00" clip-rule="evenodd" fill-rule="evenodd"/>
  <path d="m184.844635,74.295998c-7.753204,2.136116 -14.943756,3.926506 -21.623215,5.417313c-6.679474,1.490822 -12.847855,2.682083 -18.556747,3.619949c-5.708893,0.937874 -10.958313,1.622368 -15.799805,2.099663c-4.841507,0.477295 -9.275116,0.747375 -13.352402,0.856461c-4.077263,0.109085 -7.798233,0.057129 -11.214493,-0.10965c-3.416267,-0.166786 -6.527786,-0.44841 -9.386185,-0.798676c-2.858398,-0.350266 -5.463661,-0.769211 -7.867371,-1.210594c-2.403709,-0.441414 -4.605881,-0.905296 -6.658089,-1.345467c-4.104431,-0.880325 -8.062653,-2.277328 -12.099266,-4.235275c-4.036621,-1.957932 -8.151623,-4.476814 -12.569603,-7.600891c-4.41798,-3.124077 -9.47226,-5.520042 -15.720749,-10.23214c-3.124252,-2.356052 -10.519161,-9.089821 -15.712982,-14.967152c-5.19381,-5.877331 -11.366679,-11.717918 -10.00637,-9.828529c1.360311,1.889389 2.337661,5.93338 14.10599,19.607399c11.76833,13.67403 33.411018,29.311413 46.518703,33.054241c26.21534,7.485641 43.399277,7.885361 64.16658,7.616348c20.767303,-0.269005 18.532013,-3.525009 27.909012,-5.533997c7.937988,-1.701004 20.552994,-7.953011 28.332001,-5.074005c-3.662003,-5.761993 -3.207001,-15.183998 1.743988,-20.055c-3.231995,1.467003 -5.508987,5.467003 -8.719986,6.976006c1.339996,-1.645004 2.42601,-3.395004 3.487991,-4.360001c-2.798004,1.422997 -5.841995,3.282997 -6.977005,6.103996" id="path83" fill="#0000ff" clip-rule="evenodd" fill-rule="evenodd"/>
  <path d="m309.019989,120.638c-1.945984,-3.919998 1.376007,-4.940002 4.359009,-3.488007c4.169006,2.029007 6.104004,15.110016 6.104004,19.184006c0,5.367996 -8.548004,19.423996 -13.952026,11.335007c11.537018,-7.764999 2.671021,-16.240005 3.489014,-27.031006" id="path85" fill="#ff7f00" clip-rule="evenodd" fill-rule="evenodd"/>
  <path d="m294.192993,200.856003c9.106995,13.560013 27.505005,11.020996 37.497986,20.927994c1.119019,-2.044983 1.451996,-2.119019 4.361023,-2.615997c-5.065002,-3.511017 -13.011017,-4.807007 -19.186005,-6.97702c-8.231995,-2.892975 -15.205994,-6.857986 -22.673004,-11.334976" id="path87" fill="#BFB280" clip-rule="evenodd" fill-rule="evenodd"/>
  <path d="m332.687012,124.997009c-0.515015,4.914993 -7.394989,14.076996 -2.617004,18.310989c4.567993,4.048004 4.959991,-14.102005 8.472015,-17.682999c-2.183014,0.311996 -3.732025,-1.166992 -5.855011,-0.627991" id="path89" fill="#ff7f00" clip-rule="evenodd" fill-rule="evenodd"/>
  <path d="m198.893005,86.630997c-6.621002,-2.449997 -15.084,2.235001 -21.604996,3.633011c-8.492004,1.819 -16.962997,4.378998 -25.485001,5.957993c-16.822006,3.119003 -33.695007,2.479996 -50.577995,0.871994c19.577995,1.305008 37.583992,-1.074005 56.682991,-5.231995c8.639999,-1.880997 16.847992,-3.834 25.32399,-6.376007c1.201004,-0.359985 12.434006,-4.69899 12.610001,-4.522995c1.251007,1.250999 2.005005,3.919998 3.05101,5.667999" id="path91" fill="#E8CCA6" clip-rule="evenodd" fill-rule="evenodd"/>
  <path d="m198.270996,50.265999c22.031006,-8.974998 44.502991,-18.399002 68.824005,-15.839996c12.838989,1.351997 23.852997,5.082001 35.520996,10.526001c10.398987,4.852997 18.636993,13.733994 29.075989,18.392998c-19.742981,-13.82 -38.634003,-30.093002 -63.65799,-33.134003c-26.067993,-3.167 -47.639999,8.256004 -69.763,20.055" id="path93" fill="#0000ff" clip-rule="evenodd" fill-rule="evenodd"/>
  <path d="m399.710999,59.850998c-2.967773,-9.698997 -1.521362,-20.504997 -5.092621,-29.645996c-4.81131,-12.316002 -10.186188,-0.095001 -10.186188,7.848c-3.70462,-5.316002 -8.871307,-5.550003 -14.854462,-10.899002c-5.983154,-5.348999 -6.482666,-2.848 -6.267029,4.795998" id="path95" stroke-miterlimit="10" stroke-linecap="square" stroke-width="0.7506" stroke="#000000" fill="none"/>
  <path d="m332.563995,243.583008c0.088013,-1.353027 0.791992,-1.953003 0.872009,-3.488037c1.527008,0.847015 12.380005,2.484009 13.951996,0.872009c3.434998,-3.521973 -2.342987,-14.547974 -4.79599,-17.003967c-3.240997,-3.244019 -3.769012,-7.768005 -9.156006,-10.46402c-7.383026,-3.692001 -15.559021,-3.904999 -22.674011,-7.410995" id="path103" stroke-miterlimit="10" stroke-linecap="square" stroke-width="0.7506" stroke="#000000" fill="none"/>
  <path d="m310.763,206.087997c-11.690002,-4.936996 -27.796997,-10.910004 -27.904999,-26.158005c-0.10199,-14.224991 9.428986,-30.285995 13.953003,-43.597992c2.626984,-7.729004 0.959991,-8.718994 7.848999,-8.718994c2.106995,0 4.699982,-2.468018 5.667999,0.434998c1.006989,3.022995 2.368011,5.925995 2.181,9.156006c-0.34201,5.888992 -3.308014,6.687988 -6.97699,9.591995c-2.057007,1.627991 -4.357025,4.343002 -6.97702,5.229996c4.681,5.337997 14.713013,3.886002 20.056,0.873001" id="path105" stroke-miterlimit="10" stroke-linecap="square" stroke-width="0.7506" stroke="#000000" fill="none"/>
  <path d="m427.615997,92.735001c-1.126984,-4.453995 -10.072998,-12.371002 -13.080994,-17.439003c-3.712006,-6.254997 -12.438019,-9.529999 -14.824005,-15.695" id="path109" stroke-miterlimit="10" stroke-linecap="square" stroke-width="0.7506" stroke="#000000" fill="none"/>
  <path d="m323.843994,244.453979c0.053986,-3.462982 -1.119995,-8.052002 -3.488007,-10.463989" id="path111" stroke-miterlimit="10" stroke-linecap="square" stroke-width="0.7506" stroke="#000000" fill="none"/>
  <path d="m342.156006,240.095001c-1.031982,-3.44101 -1.987,-6.964996 -3.488007,-10.46402" id="path113" stroke-miterlimit="10" stroke-linecap="square" stroke-width="0.7506" stroke="#000000" fill="none"/>
  <path d="m286.346008,138.075989c3.78299,-14.089996 4.360992,-26.288986 4.360992,-40.109985c0,-19.923004 -3.242981,-31.516991 -20.057983,-42.725006" id="path115" stroke-miterlimit="10" stroke-linecap="square" stroke-width="0.7506" stroke="#000000" fill="none"/>
  <path d="m209.606003,95.350998c3.391998,6.387009 8.764999,16.285004 14.82399,20.055008" id="path117" stroke-miterlimit="10" stroke-linecap="square" stroke-width="0.7506" stroke="#000000" fill="none"/>
  <path d="m309.890991,126.73999c-2.938995,-8.164993 -4.674988,-16.641998 -7.411011,-24.849991c-2.736023,-8.207993 17.281006,-11.224991 21.364014,-10.900009" id="path119" stroke-miterlimit="10" stroke-linecap="square" stroke-width="0.7506" stroke="#000000" fill="none"/>
  <path d="m401.339874,53.81443c-3.243988,-10.46199 -13.548309,-26.666107 -17.671295,-23.448097c-4.122986,3.217987 3.514008,10.72699 6.981995,14.195976c2.995026,2.99501 5.737,5.916 7.84201,10.219017c0.358002,-1.85701 2.041199,1.844597 2.615997,-0.872017" fill="#ffffff" clip-rule="evenodd" fill-rule="evenodd" stroke="#0000ff" id="svg_1" transform="rotate(22.3075 391.909 42.4482)"/>
  <polyline id="svg_5" points="86.17800903320312,133.53599548339844 86.17800903320312,133.53599548339844 " stroke-linecap="round" stroke-linejoin="null" stroke-dasharray="null" stroke-width="1.7506" stroke="#0000ff" fill="none"/>
  <path transform="rotate(-27.0343 14.8372 24.1648)" id="svg_9" d="m20.7054,4.42156l-5.203601,9.86144l-2.59462,5.298619l-1.931149,6.198521l-1.59481,6.08946l-0.41222,3.497801l0.04278,3.704998l3.198421,4.835602l-0.1138,-7.2272c0.1138,-1.723103 0.341129,-3.668793 0.454929,-5.391882l1.28522,-6.890709l2.067,-6.772501l2.73495,-6.431609l2.0669,-6.772541z" stroke-linecap="null" stroke-linejoin="null" stroke-dasharray="null" stroke-width="null" fill="#0000ff"/>
 </g>
</svg>